<svg width="152" height="28" viewBox="0 0 152 28" fill="none" xmlns="http://www.w3.org/2000/svg">
<path d="M15.9275 21.8258C15.9275 26.1541 12.1618 27.9974 8.09527 27.9974C4.32959 27.9974 1.46758 26.5676 0 23.519L4.89468 20.7339C5.38426 22.1637 6.43894 22.9542 8.09527 22.9542C9.45078 22.9542 10.1279 22.5407 10.1279 21.788C10.1279 19.7178 0.864741 20.8096 0.864741 14.2988C0.864741 10.1962 4.32841 8.1272 8.2451 8.1272C11.2947 8.1272 14.0069 9.48252 15.5877 12.1542L10.7674 14.7502C10.24 13.7718 9.48735 13.0947 8.2451 13.0947C7.26593 13.0947 6.66309 13.4705 6.66309 14.1488C6.66309 16.2934 15.9263 14.8636 15.9263 21.8258H15.9275Z" fill="black"/>
<path d="M18.752 0H24.4005V27.7304H18.752V0Z" fill="black"/>
<path d="M34.1886 8.65515H28.54V27.4713H34.1886V8.65515Z" fill="black"/>
<path d="M37.3906 18.0636C37.3906 12.4556 41.6459 8.12848 47.3687 8.12848C51.0212 8.12848 54.2595 10.0474 55.8793 12.946L50.9468 15.8055C50.3063 14.488 48.9508 13.6987 47.2944 13.6987C44.8477 13.6987 43.0391 15.4675 43.0391 18.0648C43.0391 20.662 44.8465 22.4297 47.2944 22.4297C48.9508 22.4297 50.3452 21.6392 50.9468 20.3228L55.8793 23.1457C54.2595 26.0809 51.0589 27.9999 47.3687 27.9999C41.6459 27.9999 37.3906 23.6727 37.3906 18.0648V18.0636Z" fill="black"/>
<path d="M69.812 27.4713L63.7872 19.1539V27.4713H58.1387V1.12939H63.7872V16.897L69.4345 8.65516H76.0245L69.1715 18.0633L76.2132 27.4713H69.812Z" fill="black"/>
<path d="M93.1345 21.713C93.1345 26.0413 89.3688 27.8846 85.3023 27.8846C81.5366 27.8846 78.6746 26.4548 77.207 23.4062L82.1017 20.6212C82.5913 22.0509 83.646 22.8414 85.3023 22.8414C86.6578 22.8414 87.335 22.4279 87.335 21.6752C87.335 19.605 78.0718 20.6968 78.0718 14.186C78.0718 10.0834 81.5354 8.0144 85.4521 8.0144C88.5017 8.0144 91.2139 9.36973 92.7947 12.0414L87.9744 14.6374C87.447 13.659 86.6944 12.982 85.4521 12.982C84.473 12.982 83.8701 13.3577 83.8701 14.036C83.8701 16.1806 93.1333 14.7508 93.1333 21.713H93.1345Z" fill="black"/>
<path d="M114.034 15.8054V27.3582H108.385V16.6326C108.385 14.2989 106.916 13.2082 105.109 13.2082C103.039 13.2082 101.608 14.4123 101.608 17.0851V27.3582H95.959V1.01624H101.608V10.3109C102.624 8.91894 104.506 8.015 106.992 8.015C110.795 8.015 114.034 10.7245 114.034 15.8054Z" fill="black"/>
<path d="M123.563 8.54156H117.914V27.3578H123.563V8.54156Z" fill="black"/>
<path d="M134.557 8.54191H138.058V13.9608H134.557V27.3581H128.908V13.9608H126.386V8.54191H128.908C128.908 3.27305 131.808 0.112204 138.058 0.489142V5.90807C135.95 5.71901 134.557 6.35945 134.557 8.54191Z" fill="black"/>
<path d="M147.851 13.9608V20.6217C147.851 22.2405 149.244 22.3906 151.73 22.2405V27.3581C144.349 28.1108 142.203 25.8905 142.203 20.6217V13.9608H139.191V8.54191H142.203V4.9675L147.851 3.27423V8.5431H151.73V13.962H147.851V13.9608Z" fill="black"/>
</svg>
